<?xml version="1.0" encoding="UTF-8"?>
<svg id="paper" xmlns="http://www.w3.org/2000/svg" viewBox="0 0 720 720">
  <defs>
    <style>
      .cls-1 {
        fill: #c4e7ed;
      }

      .cls-2 {
        fill: #f0c0b0;
      }
    </style>
  </defs>
  <polygon class="cls-1" points="511.57 174.29 426.16 179.11 410.58 98.92 144 140.09 212.04 596.38 511.57 572.76 614.77 561.82 511.57 174.29"/>
  <polygon class="cls-2" points="511.57 174.29 410.58 98.92 426.16 179.11 511.57 174.29"/>
  <polygon class="cls-2" points="534.71 340.42 540.64 369.62 557.17 448 425.26 307.04 534.71 340.42"/>
  <polygon class="cls-2" points="511.57 492.29 614.77 561.82 491.22 574.92 384.02 457.39 511.57 492.29"/>
  <polygon class="cls-2" points="280.38 325.4 168.88 300.78 158.06 234.37 280.38 325.4"/>
  <polygon class="cls-2" points="212.04 596.38 425.26 579.57 298.16 483.48 179.54 375.98 212.04 596.38"/>
  <polygon class="cls-2" points="317.86 403.43 179.54 375.98 171.2 322.46 280.38 325.4 317.86 403.43"/>
  <polygon class="cls-2" points="397 534.33 171.2 322.46 165.18 266.15 342.7 358.43 427.6 472.26 529.89 570.85 397 534.33"/>
</svg>