<?xml version="1.0" encoding="UTF-8"?>
<svg id="rock" xmlns="http://www.w3.org/2000/svg" viewBox="0 0 720 720">
  <defs>
    <style>
      .cls-1 {
        fill: #8ea2d3;
      }

      .cls-2 {
        fill: #efd8e9;
      }
    </style>
  </defs>
  <polygon class="cls-2" points="159.35 424.24 201.71 445.67 193.3 410.99 173.17 390.61 145.47 385.13 159.35 424.24"/>
  <polygon class="cls-2" points="587.29 273.29 377.84 112.53 246.98 212.59 234.22 229.67 221.93 231.75 166.96 273.78 238.43 541.59 517.25 541.59 540.64 451.99 529.4 420.29 555.61 394.66 587.29 273.29"/>
  <polygon class="cls-2" points="205.14 452.55 221.29 539.18 134.8 500.51 86.09 417.04 205.14 452.55"/>
  <polygon class="cls-2" points="614.33 415.4 598.9 514.18 532.89 538.18 548.05 470.76 614.33 415.4"/>
  <polygon class="cls-1" points="462.58 444.29 474.85 398.1 525.28 463.16 462.58 444.29"/>
  <polygon class="cls-1" points="448.01 475.73 424.73 541.59 328.41 541.59 424.73 451.55 448.01 475.73"/>
  <polygon class="cls-1" points="288.9 486.85 351.58 541.59 243.88 540.64 301.96 383.37 288.9 486.85"/>
  <polygon class="cls-1" points="326.77 297.33 301.96 383.37 197.57 387.26 301.96 265.74 326.77 297.33"/>
  <polygon class="cls-1" points="572.24 278.18 477.57 220.85 396.24 201.09 404.07 142.18 572.24 278.18"/>
  <polygon class="cls-2" points="456.56 562.66 491.81 541.65 424.73 548.37 377.13 561.62 456.56 562.66"/>
  <polygon class="cls-1" points="373.9 312.24 274.54 209.08 331.02 166.02 404.07 189.1 373.9 312.24"/>
  <polygon class="cls-1" points="470.92 499.51 338.23 361.75 413.66 304.24 511.22 335.07 470.92 499.51"/>
  <polygon class="cls-1" points="486.46 430.62 517.25 541.59 456.56 540.78 486.46 430.62"/>
  <polygon class="cls-1" points="221.29 539.18 165.24 497.9 109.19 456.63 181.19 445.41 205.14 452.55 221.29 539.18"/>
  <polygon class="cls-1" points="532.89 538.18 543.54 490.83 607.23 460.85 598.9 514.18 532.89 538.18"/>
  <polygon class="cls-1" points="166.96 273.78 228.76 350.95 197.57 387.26 166.96 273.78"/>
  <polygon class="cls-1" points="300.52 387.26 243.88 540.64 249.13 459.96 300.52 387.26"/>
  <polygon class="cls-1" points="548.76 369.29 525.28 304.24 572.24 278.18 548.76 369.29"/>
  <polygon class="cls-1" points="529.4 420.29 540.64 451.99 535.27 477.11 492.27 451.55 529.4 420.29"/>
  <polygon class="cls-1" points="517.25 541.59 238.43 541.59 229.14 506.77 520.55 528.98 517.25 541.59"/>
  <polygon class="cls-2" points="503.98 558.44 570.68 560.32 517.89 524.75 482.32 529.52 435.95 558.44 503.98 558.44"/>
  <polygon class="cls-2" points="538.77 563.69 510.79 570.29 525.69 588.9 543.11 592.61 560.91 583.07 538.77 563.69"/>
  <polygon class="cls-1" points="498.12 531.21 523.62 528.61 570.68 560.32 530 555.38 498.12 531.21"/>
  <polygon class="cls-1" points="173.59 561.26 238.86 524.54 293.36 555.66 259.2 576.33 173.59 561.26"/>
  <polygon class="cls-1" points="512.48 558.63 534.4 538.18 570.68 560.32 512.48 558.63"/>
  <polygon class="cls-1" points="528.65 589.4 540.23 564.97 560.91 583.07 543.11 592.61 528.65 589.4"/>
</svg>