<?xml version="1.0" encoding="UTF-8"?>
<svg id="scissors" xmlns="http://www.w3.org/2000/svg" viewBox="0 0 720 720">
  <defs>
    <style>
      .cls-1 {
        fill: #fff;
      }

      .cls-2 {
        fill: #b5dec6;
      }

      .cls-3 {
        fill: #d57c82;
      }

      .cls-4 {
        fill: #bad980;
      }

      .cls-5 {
        fill: #edbe78;
      }
    </style>
  </defs>
  <polygon class="cls-3" points="291.07 281.39 241.66 251.45 249.11 210.47 291.07 281.39"/>
  <g>
    <polygon class="cls-2" points="429.87 173.14 492.64 163.89 405.96 221.05 429.87 173.14"/>
    <polygon class="cls-2" points="467.29 141.79 533.68 136.23 490.62 165.22 449.47 172.15 467.29 141.79"/>
    <polygon class="cls-2" points="533.25 136.85 491.89 181.44 453.81 169.61 533.25 136.85"/>
  </g>
  <polygon class="cls-2" points="335.43 236.68 230.93 123.12 306.34 135.92 335.43 236.68"/>
  <polygon class="cls-3" points="375.51 241.81 336.23 75.39 484.83 80.51 375.51 241.81"/>
  <polygon class="cls-2" points="358.73 269.92 303.81 79.75 447.2 116.36 358.73 269.92"/>
  <polygon class="cls-2" points="337.14 236.49 253.52 126.03 308.46 158.65 337.14 236.49"/>
  <polygon class="cls-4" points="377.07 326.27 473.82 473.96 459.88 601.38 377.07 513.29 294.27 601.38 273.51 473.96 377.07 326.27"/>
  <polygon class="cls-4" points="274.15 180.43 377.07 326.27 330.64 392.49 274.15 180.43"/>
  <polygon class="cls-5" points="473.82 180.43 370.73 318.63 414.29 383.08 473.82 180.43"/>
  <polygon class="cls-1" points="369.46 479.64 308.27 544.38 301.09 473.13 342.04 418.67 369.46 479.64"/>
</svg>